<svg height="512pt" viewBox="-19 0 512 512" width="512pt" xmlns="http://www.w3.org/2000/svg"><path d="m115.601562 504.5h-52.816406c-5.554687 0-10.058594-4.503906-10.058594-10.058594v-373.894531c0-20.140625 16.328126-36.46875 36.464844-36.46875 20.140625 0 36.46875 16.328125 36.46875 36.46875v373.894531c-.003906 5.554688-4.503906 10.058594-10.058594 10.058594zm0 0" fill="#cc7a2f"/><path d="m7.5 182.976562v100.417969c0 12.46875 9.738281 22.773438 22.1875 23.445313 67.664062 3.636718 282.453125 24.367187 400.585938 142.5v-432.308594c-118.132813 118.128906-332.921876 138.863281-400.585938 142.5-12.449219.667969-22.1875 10.976562-22.1875 23.445312zm0 0" fill="#fc4e51"/><path d="m7.5 267.574219v15.820312c0 12.46875 9.738281 22.773438 22.1875 23.445313 67.664062 3.636718 282.453125 24.367187 400.585938 142.5v-78.152344c-93.976563-93.976562-305.953126-97.65625-422.773438-103.613281zm0 0" fill="#e5394b"/><path d="m445.871094 458.871094h-31.195313c-11.46875 0-20.769531-9.300782-20.769531-20.769532v-409.835937c0-11.46875 9.300781-20.765625 20.769531-20.765625h31.195313c11.46875 0 20.769531 9.296875 20.769531 20.765625v409.835937c0 11.46875-9.300781 20.769532-20.769531 20.769532zm0 0" fill="#fd8f31"/><path d="m155.152344 143.96875c-53.953125 10.421875-100.070313 14.195312-125.460938 15.5625-12.453125.667969-22.191406 10.976562-22.191406 23.445312v100.417969c0 12.464844 9.742188 22.773438 22.191406 23.441407 25.390625 1.367187 71.507813 5.140624 125.460938 15.566406zm0 0" fill="#e7eced"/><path d="m7.5 267.574219v15.820312c0 12.46875 9.738281 22.773438 22.1875 23.445313 25.394531 1.363281 71.511719 5.136718 125.460938 15.5625h.003906v-45.523438c-54.753906-5.429687-106.972656-7.230468-147.652344-9.304687zm0 0" fill="#d8d8d8"/><path d="m52.71875 204.851562c.472656 0 19.878906-1.585937 61.21875-4.917968 4.128906-.332032 7.207031-3.953125 6.875-8.078125-.335938-4.128907-3.953125-7.203125-8.082031-6.875l-60.609375 4.894531c-4.128906.335938-7.203125 3.953125-6.871094 8.078125.316406 3.925781 3.597656 6.898437 7.46875 6.898437zm0 0"/><path d="m113.335938 225.683594h-60.609376c-4.144531 0-7.5 3.359375-7.5 7.5 0 4.144531 3.355469 7.5 7.5 7.5h60.609376c4.140624 0 7.5-3.355469 7.5-7.5 0-4.140625-3.359376-7.5-7.5-7.5zm0 0"/><path d="m113.9375 266.4375-60.609375-4.894531c-4.140625-.332031-7.742187 2.742187-8.078125 6.871093-.332031 4.128907 2.742188 7.746094 6.871094 8.082032l60.609375 4.894531c4.148437.335937 7.75-2.761719 8.082031-6.875.332031-4.128906-2.746094-7.746094-6.875-8.078125zm0 0"/><path d="m445.871094 0h-31.195313c-15.585937 0-28.269531 12.679688-28.269531 28.265625v16.261719c-71.949219 52.527344-165.761719 81-253.25 95.800781v-19.78125c0-24.242187-19.722656-43.964844-43.964844-43.964844-24.242187 0-43.964844 19.722657-43.964844 43.964844v30.472656c-6.121093.453125-11.480468.78125-15.9375 1.023438-16.425781.882812-29.289062 14.46875-29.289062 30.933593v100.417969c0 16.460938 12.863281 30.050781 29.289062 30.933594 4.457032.238281 9.816407.570313 15.9375 1.023437v179.089844c0 9.683594 7.875 17.558594 17.558594 17.558594h52.816406c9.679688 0 17.554688-7.875 17.554688-17.558594v-168.398437c87.242188 14.757812 181.175781 43.183593 253.25 95.796875v16.261718c0 15.585938 12.683594 28.269532 28.269531 28.269532h31.195313c15.585937 0 28.269531-12.683594 28.269531-28.269532v-409.835937c-.003906-15.585937-12.683594-28.265625-28.269531-28.265625zm-385.644532 120.546875c0-15.972656 12.992188-28.96875 28.964844-28.96875s28.964844 12.996094 28.964844 28.96875v22.191406c-21.914062 3.339844-41.667969 5.566407-57.929688 7.042969zm57.929688 373.894531c0 1.410156-1.144531 2.558594-2.554688 2.558594h-52.816406c-1.410156 0-2.558594-1.148438-2.558594-2.558594v-177.851562c16.261719 1.476562 36.015626 3.699218 57.929688 7.042968zm44.496094-178.195312v-103.105469c0-4.144531-3.355469-7.5-7.5-7.5-4.144532 0-7.5 3.355469-7.5 7.5v100.21875c-36.671875-6.699219-78.417969-11.90625-117.558594-14.011719-8.464844-.453125-15.09375-7.460937-15.09375-15.953125v-100.417969c0-8.492187 6.628906-15.5 15.09375-15.957031 36.402344-1.957031 78.09375-6.796875 117.558594-14.011719v30.113282c0 4.144531 3.355468 7.5 7.5 7.5 4.144531 0 7.5-3.355469 7.5-7.5v-32.996094c90.882812-18.191406 166.050781-47.484375 223.753906-87.199219v340.519531c-57.703125-39.714843-132.871094-69.007812-223.753906-87.199218zm296.484375 121.855468c0 7.316407-5.949219 13.269532-13.265625 13.269532h-31.195313c-7.316406 0-13.269531-5.953125-13.269531-13.269532v-409.835937c0-7.3125 5.953125-13.265625 13.269531-13.265625h31.195313c7.316406 0 13.265625 5.953125 13.265625 13.265625zm0 0"/></svg>